<svg xmlns="http://www.w3.org/2000/svg" xmlns:xlink="http://www.w3.org/1999/xlink" width="422" height="481" viewBox="0 0 422 481">
  <defs>
    <linearGradient id="linear-gradient" x1="0.5" x2="0.214" y2="1" gradientUnits="objectBoundingBox">
      <stop offset="0" stop-color="#00febe"/>
      <stop offset="0.352" stop-color="#3271af"/>
      <stop offset="1" stop-color="#02b"/>
    </linearGradient>
  </defs>
  <path id="Subtraction_12" data-name="Subtraction 12" d="M175.235,524H31.224c-2.217-11.59-3.945-23.414-5.136-35.142a410.637,410.637,0,0,1,0-82.715,405.653,405.653,0,0,1,6.13-40.163c2.667-13.031,6.02-26.074,9.967-38.765,3.9-12.547,8.479-25.051,13.6-37.164A405.685,405.685,0,0,1,271.05,74.787c12.114-5.123,24.618-9.7,37.164-13.6,12.689-3.947,25.731-7.3,38.765-9.967a405.653,405.653,0,0,1,40.163-6.13A411.2,411.2,0,0,1,428.5,43c5.792,0,11.68.126,17.5.374v140.2c-5.8-.38-11.686-.573-17.5-.573a266.442,266.442,0,0,0-53.306,5.374,263.043,263.043,0,0,0-94.578,39.8,265.267,265.267,0,0,0-95.829,116.372,263.207,263.207,0,0,0-15.413,49.649,267.114,267.114,0,0,0,0,106.612c1.59,7.767,3.562,15.571,5.861,23.193Z" transform="translate(-24 -43)" opacity="0.998" fill="url(#linear-gradient)"/>
</svg>
